<?xml version="1.0" encoding="UTF-8"?>
<!DOCTYPE svg PUBLIC "-//W3C//DTD SVG 1.1//EN" "http://www.w3.org/Graphics/SVG/1.1/DTD/svg11.dtd">
<!-- Creator: CorelDRAW -->
<svg xmlns="http://www.w3.org/2000/svg" xml:space="preserve" width="8.5in" height="11in" version="1.1" style="shape-rendering:geometricPrecision; text-rendering:geometricPrecision; image-rendering:optimizeQuality; fill-rule:evenodd; clip-rule:evenodd"
viewBox="0 0 8500 11000"
 xmlns:xlink="http://www.w3.org/1999/xlink">
 <defs>
  <style type="text/css">
   <![CDATA[
    .fil0 {fill:#660066}
    .fil1 {fill:#770077}
    .fil7 {fill:#822985}
    .fil4 {fill:#FF7600}
    .fil6 {fill:#FF772A}
    .fil5 {fill:#FF9919}
    .fil3 {fill:#FFAC00}
    .fil2 {fill:#FFCC00}
    .fil8 {fill:#770077;fill-rule:nonzero}
   ]]>
  </style>
 </defs>
 <g id="Layer_x0020_1">
  <metadata id="CorelCorpID_0Corel-Layer"/>
  <g id="Universitas_x0020_Amikom_x0020_Purwokerto_x0020_Logo_x0020__x005b_koleksilogo.com_x005d_.cdr">
   <polygon class="fil0" points="4880,4912 5167,5004 5225,5096 4848,6126 4805,6126 5092,5100 4852,4997 "/>
   <path class="fil0" d="M4922 4780l-60 187 259 90c29,11 44,53 29,92l-321 977 77 1c43,-1 75,-42 86,-79l335 -1038c6,-10 9,-56 -8,-76 -13,-16 -38,-29 -68,-41l-32 -12 -297 -101z"/>
   <path class="fil1" d="M4862 4967l-289 896c-15,48 -47,67 -99,67l-746 -5 2 137c6,50 46,69 90,68l1009 -4 321 -977c16,-39 0,-81 -29,-92l-259 -90z"/>
   <polygon class="fil0" points="2791,3783 2841,3744 3213,4750 3458,4658 3496,4771 3248,4853 3118,4793 "/>
   <polygon class="fil0" points="4007,5340 4142,5340 4142,5712 4010,5713 2994,5700 2975,5644 4007,5604 "/>
   <path class="fil1" d="M4069 5340l-917 5c-50,1 -79,-23 -95,-72l-240 -722 -119 41c-46,21 -51,65 -36,107l325 981 1012 -6c42,2 68,-17 70,-50l0 -284z"/>
   <path class="fil0" d="M4266 5339l-197 1 0 284c-2,31 -29,52 -70,50l-1012 6 24 73c15,40 39,62 78,61l1092 -5c58,-1 86,-34 85,-105l0 -365z"/>
   <path class="fil2" d="M2817 4551l113 -38 222 679c14,48 36,88 91,93l984 0c15,14 28,32 39,54l-1114 6c-47,1 -77,-17 -95,-72l-240 -722z"/>
   <path class="fil3" d="M3079 4969c20,47 54,58 98,50 17,-3 35,-11 57,-18l67 204c15,45 48,69 105,66l797 -1c9,3 17,9 24,15l-984 0c-48,-3 -75,-38 -91,-93l-73 -223z"/>
   <path class="fil4" d="M3234 5001l70 -25 102 295c-54,3 -89,-18 -105,-66l-67 -204z"/>
   <path class="fil2" d="M3728 5925l0 -114 719 -2c49,2 85,-26 105,-77l306 -932c19,-10 39,-18 64,-20l-349 1083c-14,45 -45,69 -105,67l-740 -5z"/>
   <path class="fil3" d="M4190 5810c30,-5 53,-18 65,-41 11,-24 12,-59 11,-99l216 3c47,0 84,-22 100,-77l255 -780c7,-7 13,-12 21,-16l-306 932c-23,68 -73,80 -131,78l-231 0z"/>
   <path class="fil4" d="M4266 5670l0 -78 316 4c-15,51 -50,78 -100,77l-216 -3z"/>
   <path class="fil2" d="M4221 4094c293,0 530,237 530,530 0,293 -237,530 -530,530 -293,0 -530,-237 -530,-530 0,-293 237,-530 530,-530z"/>
   <path class="fil5" d="M4221 4209c229,0 415,186 415,415 0,229 -186,415 -415,415 -229,0 -415,-186 -415,-415 0,-229 186,-415 415,-415z"/>
   <path class="fil0" d="M4581 3969l153 109 164 -221c20,-24 66,-26 97,1l822 595 26 -78c12,-41 -18,-84 -50,-106l-877 -634c-47,-33 -93,-21 -135,37l-200 297z"/>
   <polygon class="fil0" points="4944,3777 5830,4414 5807,4486 4936,3856 4769,4103 4708,4059 4879,3808 "/>
   <polygon class="fil0" points="3703,3741 3708,3610 4535,2981 4586,3020 3780,3666 3896,3927 3855,3958 "/>
   <path class="fil1" d="M4734 4078l763 548c41,29 50,65 34,115l-225 730 122 35c50,10 80,-22 92,-64l297 -989 -823 -596c-32,-27 -78,-24 -97,-1l-163 222z"/>
   <path class="fil2" d="M5306 5471l-115 -38 220 -684c20,-54 2,-107 -45,-142l-785 -572c-4,-20 -5,-42 0,-66l916 657c39,27 54,66 32,121l-223 724z"/>
   <path class="fil3" d="M5327 5010c5,-31 8,-65 -16,-84 -20,-16 -55,-31 -92,-45l74 -223c14,-45 3,-87 -44,-119l-659 -478c-5,-9 -7,-16 -9,-26l785 572c58,43 63,98 44,152l-83 251z"/>
   <path class="fil4" d="M5219 4881l-74 -25 99 -321c28,17 45,39 52,64 4,19 3,38 -3,59l-74 223z"/>
   <path class="fil0" d="M3733 4052l151 -115 -153 -211c-15,-26 -8,-82 27,-108l809 -612 -64 -51c-35,-25 -85,-13 -117,9l-856 656c-48,32 -53,80 -14,139l217 293z"/>
   <path class="fil1" d="M3884 3937l732 -560c39,-31 80,-34 122,-6l613 445 65 -94c31,-51 18,-94 -35,-129l-814 -587 -809 612c-5,4 -10,8 -13,13 -11,14 -17,29 -20,44 -3,17 -2,36 6,51l153 211z"/>
   <path class="fil2" d="M5351 3816l-63 88 -560 -404c-49,-37 -111,-50 -158,-16l-774 589c-20,-4 -42,-8 -63,-21l891 -680c37,-29 81,-29 124,6l603 438z"/>
   <path class="fil3" d="M4916 3635c-71,-40 -110,1 -154,65l-176 -124c-3,-2 -6,-4 -10,-6 -6,-3 -13,-6 -20,-8 -30,-9 -62,-1 -90,19l-643 490c-9,2 -17,2 -27,2l761 -580c22,-20 48,-28 73,-29 32,0 64,11 87,28l199 143z"/>
   <path class="fil4" d="M4762 3700l-45 66 -252 -183c43,-35 91,-31 133,1l164 116z"/>
   <path class="fil0" d="M3537 4895l-58 -176 -240 73c-47,12 -90,-16 -103,-58l-316 -974 -68 54c-31,28 -27,69 -17,106l338 1031c16,59 52,82 121,64l343 -120z"/>
   <path class="fil1" d="M3479 4719l-298 -899c-17,-48 -7,-87 33,-118l603 -455 -68 -92c-38,-46 -86,-38 -137,0l-792 605 316 975c8,24 23,41 42,51 15,7 38,13 62,6l239 -73z"/>
   <path class="fil2" d="M3817 3247l73 97 -560 428c-49,36 -76,77 -58,132l303 936c-9,18 -20,38 -38,55l-356 -1075c-10,-28 -11,-58 2,-83 8,-15 22,-29 39,-41l595 -449z"/>
   <path class="fil3" d="M3523 3625c-55,49 -33,98 14,162l-175 134c-38,29 -46,69 -31,113l251 780c-1,10 -3,17 -7,26l-299 -924c-26,-67 6,-108 48,-140l199 -151z"/>
   <path class="fil4" d="M3537 3787l44 60 -250 187c-19,-52 1,-98 46,-124l160 -123z"/>
   <path class="fil6" d="M4221 4482c78,0 142,64 142,142 0,78 -64,142 -142,142 -78,0 -142,-64 -142,-142 0,-78 64,-142 142,-142z"/>
   <path class="fil7" d="M1997 3669l169 104c29,21 46,49 49,91 98,744 195,1488 292,2231 12,53 45,80 109,92 366,72 1277,358 1600,744 -178,-150 -399,-253 -633,-346 -323,-129 -684,-220 -1089,-270 -89,-13 -132,-49 -142,-122l-355 -2524z"/>
   <path class="fil2" d="M2037 3655l169 105c29,20 46,48 49,91 97,743 195,1487 292,2231 12,53 44,80 108,92 367,71 1238,354 1561,757 -308,-360 -1142,-652 -1563,-743 -87,-19 -129,-36 -140,-108l-290 -2228c-3,-32 -25,-67 -47,-81l-135 -84 -4 -32z"/>
   <path class="fil3" d="M2074 3637l169 105c29,21 46,48 49,91 97,744 196,1487 294,2231 11,53 43,80 107,92 366,71 1199,377 1523,775 -105,-124 -267,-243 -451,-346 -358,-202 -799,-352 -1078,-412 -85,-19 -125,-38 -135,-111l-292 -2227c-3,-33 -25,-67 -47,-82l-135 -84 -4 -32z"/>
   <path class="fil4" d="M2110 3617l169 106c29,21 46,49 49,91 97,744 193,1488 290,2231 10,53 46,76 109,88 115,23 271,76 443,144 376,147 824,381 1046,654 -203,-221 -454,-370 -715,-495 -251,-122 -510,-223 -778,-282 -86,-19 -123,-37 -133,-110l-294 -2228c-3,-32 -25,-67 -48,-81l-134 -84 -4 -34z"/>
   <path class="fil7" d="M1408 4269c106,-12 161,6 175,101l290 2040c13,72 62,114 155,121 860,33 1328,201 1693,404 -525,-245 -1221,-324 -1804,-244 -115,17 -186,-62 -199,-149l-310 -2273z"/>
   <path class="fil2" d="M1432 4236c106,-12 167,13 180,108l290 2033c13,72 57,114 150,121 859,33 1304,234 1669,437 -525,-260 -956,-380 -1660,-412 -118,-5 -165,-46 -178,-113l-294 -2060c-10,-71 -63,-101 -154,-93l-3 -21z"/>
   <path class="fil3" d="M1464 4207c106,-6 167,21 180,113l290 2032c13,72 56,111 149,118 863,60 1262,263 1638,465 -525,-260 -936,-412 -1641,-444 -117,-5 -153,-50 -166,-117l-293 -2049c-17,-73 -64,-105 -156,-101l-1 -17z"/>
   <path class="fil4" d="M1491 4180c126,-5 167,27 180,116l290 2032c13,72 52,108 147,115 859,66 1237,290 1613,492 -436,-216 -774,-368 -1280,-437 -103,-14 -221,-28 -334,-36 -113,-8 -150,-44 -163,-112l-292 -2048c-15,-65 -50,-102 -161,-106l0 -16z"/>
   <path class="fil7" d="M6436 3669l-169 104c-29,21 -46,49 -49,91 -98,744 -195,1488 -292,2231 -12,53 -45,80 -109,92 -366,72 -1277,358 -1601,744 179,-150 400,-253 634,-346 323,-129 684,-220 1089,-270 89,-13 132,-49 142,-122l355 -2524z"/>
   <path class="fil2" d="M6396 3655l-169 105c-29,20 -46,48 -49,91 -97,743 -195,1487 -292,2231 -12,53 -45,80 -108,92 -367,71 -1238,354 -1562,757 309,-360 1143,-652 1564,-743 87,-19 129,-36 140,-108l290 -2228c3,-32 25,-67 47,-81l135 -84 4 -32z"/>
   <path class="fil3" d="M6359 3637l-169 105c-29,21 -46,48 -49,91 -98,744 -196,1487 -294,2231 -11,53 -43,80 -107,92 -366,71 -1199,377 -1524,775 106,-124 268,-243 452,-346 358,-202 799,-352 1078,-412 85,-19 125,-38 135,-111l291 -2227c4,-33 26,-67 48,-82l135 -84 4 -32z"/>
   <path class="fil4" d="M6323 3617l-169 106c-29,21 -46,49 -49,91 -97,744 -193,1488 -290,2231 -10,53 -46,76 -109,88 -115,23 -271,76 -443,144 -376,147 -824,381 -1047,654 204,-221 455,-370 715,-495 252,-122 511,-223 779,-282 86,-19 123,-37 133,-110l294 -2228c3,-32 25,-67 48,-81l134 -84 4 -34z"/>
   <path class="fil7" d="M7025 4269c-106,-12 -161,6 -175,101l-290 2040c-13,72 -62,114 -155,121 -860,33 -1328,201 -1693,404 525,-245 1221,-324 1804,-244 115,17 186,-62 199,-149l310 -2273z"/>
   <path class="fil2" d="M7001 4236c-106,-12 -167,13 -180,108l-290 2033c-13,72 -57,114 -150,121 -859,33 -1304,234 -1669,437 525,-260 956,-380 1660,-412 118,-5 165,-46 178,-113l294 -2060c10,-71 63,-101 154,-93l3 -21z"/>
   <path class="fil3" d="M6969 4207c-107,-6 -167,21 -180,113l-290 2032c-14,72 -56,111 -149,118 -863,60 -1262,263 -1638,465 525,-260 936,-412 1641,-444 117,-5 153,-50 166,-117l293 -2049c17,-73 64,-105 156,-101l1 -17z"/>
   <path class="fil4" d="M6942 4180c-126,-5 -167,27 -180,116l-290 2032c-13,72 -52,108 -148,115 -858,66 -1236,290 -1612,492 436,-216 774,-368 1279,-437 104,-14 222,-28 335,-36 113,-8 150,-44 163,-112l292 -2048c15,-65 50,-102 161,-106l0 -16z"/>
   <path class="fil8" d="M1391 7277l157 0 0 20 -32 0c-5,0 -8,1 -11,4 -2,3 -3,8 -3,14l0 172c0,25 6,43 19,56 13,13 31,20 53,20 17,0 32,-4 46,-11 10,-5 18,-14 24,-26 7,-13 10,-28 10,-47l0 -132c0,-17 -4,-29 -11,-38 -8,-8 -18,-12 -31,-12l-4 0 0 -20 119 0 0 20 -8 0c-13,0 -22,4 -29,14 -6,9 -9,20 -9,34l0 144c0,32 -11,57 -32,77 -22,19 -51,29 -89,29 -27,0 -50,-4 -70,-13 -20,-9 -34,-20 -42,-34 -9,-14 -13,-32 -13,-55l0 -175c0,-8 -1,-14 -4,-17 -4,-3 -9,-4 -17,-4l-23 0 0 -20zm605 0l96 0 169 214 0 -146c0,-14 -4,-25 -12,-34 -8,-9 -20,-13 -35,-14l0 -20 114 0 0 20c-16,1 -27,6 -34,14 -7,8 -11,19 -11,34l0 244 -24 0 -192 -246 0 170c0,20 4,34 13,43 9,9 20,13 33,13l6 0 0 20 -126 0 0 -20 9 0c12,0 23,-5 31,-14 9,-10 13,-23 13,-38l0 -201c-10,-13 -22,-19 -36,-19l-14 0 0 -20zm602 0l160 0 0 20 -29 0c-6,0 -11,1 -14,3 -2,3 -4,6 -4,11l0 242c0,5 2,9 5,12 3,3 9,4 16,4l26 0 0 20 -160 0 0 -20 25 0c8,0 14,-1 17,-4 4,-3 6,-7 6,-12l0 -239c0,-6 -2,-10 -5,-13 -3,-3 -8,-4 -15,-4l-28 0 0 -20zm414 0l153 0 0 20 -17 0c-11,0 -19,1 -23,3 -3,2 -5,5 -5,9 0,3 1,9 4,17l78 189 65 -162c4,-11 6,-21 6,-30 0,-9 -3,-15 -8,-20 -5,-4 -13,-6 -23,-6l-14 0 0 -20 120 0 0 20 -9 0c-8,0 -15,2 -21,8 -6,5 -12,14 -17,28l-107 263 -25 0 -114 -276c-3,-10 -8,-16 -13,-19 -5,-3 -13,-4 -24,-4l-6 0 0 -20zm591 0l272 0 6 109 -19 0c-4,-26 -10,-44 -16,-56 -7,-11 -15,-19 -26,-25 -11,-6 -25,-8 -42,-8l-43 0c-6,0 -11,1 -14,3 -3,3 -5,7 -5,11l0 108 15 0c17,0 30,-4 39,-14 10,-9 15,-25 17,-46l18 0 0 145 -18 0c-2,-24 -7,-41 -16,-51 -10,-10 -24,-15 -42,-15l-13 0 0 116c0,5 2,8 5,11 4,3 11,4 19,4l38 0c26,0 47,-8 63,-25 17,-16 27,-41 31,-74l18 0 -4 119 -283 0 0 -20 28 0c6,0 11,-1 14,-5 3,-3 5,-7 5,-13l0 -240c0,-5 -2,-9 -5,-11 -3,-2 -9,-3 -18,-3l-24 0 0 -20zm580 0l163 0c26,0 48,3 64,10 17,7 29,16 38,28 8,12 12,25 12,39 0,23 -10,41 -31,55 -15,11 -39,18 -72,21 16,3 29,7 38,13 9,6 16,15 23,26 9,16 16,34 22,55 3,14 6,22 9,26 3,3 6,5 9,5 9,0 15,-12 16,-37l19 0c-1,26 -7,45 -17,56 -11,12 -25,17 -44,17 -13,0 -24,-3 -32,-8 -8,-5 -14,-14 -18,-24 -3,-6 -6,-20 -11,-43 -5,-26 -10,-43 -14,-52 -4,-9 -9,-16 -16,-20 -7,-5 -15,-7 -24,-7l-23 0 0 115c0,5 1,9 4,12 4,3 9,5 15,5l28 0 0 20 -158 0 0 -20 25 0c6,0 11,-1 14,-5 3,-3 5,-8 5,-14l0 -235c0,-6 -2,-11 -5,-14 -2,-3 -7,-4 -12,-4l-27 0 0 -20zm111 141l26 0c23,0 42,-6 55,-18 10,-9 15,-24 15,-46 0,-20 -5,-34 -15,-43 -10,-9 -27,-14 -51,-14 -14,0 -22,1 -25,4 -4,3 -5,10 -5,19l0 98zm672 -117l20 -28 15 0 1 108 -18 0c-10,-31 -24,-54 -42,-70 -19,-15 -39,-23 -61,-23 -18,0 -34,5 -45,16 -12,10 -18,22 -18,36 0,8 2,16 7,23 5,7 12,13 22,18 11,5 29,10 54,16 31,6 51,12 63,17 18,8 32,19 41,32 9,14 14,30 14,49 0,29 -10,52 -30,69 -24,21 -53,31 -88,31 -33,0 -62,-11 -89,-34l-25 31 -16 0 0 -116 19 0c18,66 56,99 112,99 23,0 41,-6 54,-16 12,-11 19,-24 19,-40 0,-11 -3,-20 -9,-28 -5,-7 -14,-13 -26,-18 -6,-2 -22,-6 -48,-12 -34,-7 -59,-15 -73,-23 -15,-8 -26,-18 -33,-30 -6,-12 -10,-26 -10,-43 0,-28 10,-51 29,-69 19,-18 44,-27 77,-27 30,0 59,11 84,32zm333 -24l159 0 0 20 -29 0c-6,0 -10,1 -13,3 -3,3 -4,6 -4,11l0 242c0,5 1,9 4,12 4,3 9,4 17,4l25 0 0 20 -159 0 0 -20 24 0c9,0 15,-1 18,-4 3,-3 5,-7 5,-12l0 -239c0,-6 -1,-10 -5,-13 -3,-3 -8,-4 -14,-4l-28 0 0 -20zm440 0l272 0 7 118 -19 0c-4,-25 -10,-45 -17,-59 -7,-14 -15,-25 -25,-30 -9,-6 -19,-9 -30,-9 -6,0 -11,1 -14,3 -3,3 -4,7 -4,12l0 241c0,5 1,9 4,12 3,3 6,4 11,4l35 0 0 20 -167 0 0 -20 34 0c5,0 9,-1 12,-4 3,-3 4,-7 4,-12l0 -240c0,-6 -1,-10 -4,-12 -3,-3 -8,-4 -14,-4 -36,0 -60,32 -73,98l-19 0 7 -118zm709 -8l116 280c4,8 7,13 11,16 4,3 10,4 16,4l12 0 0 20 -147 0 0 -20 14 0c11,0 18,-1 22,-3 5,-3 7,-6 7,-10 0,-3 -1,-7 -3,-11l-24 -57 -117 0 -11 26c-4,11 -7,19 -7,24 0,10 4,17 10,23 7,5 16,8 28,8l10 0 0 20 -118 0 0 -20 6 0c8,0 15,-2 20,-7 9,-7 15,-15 19,-26l113 -267 23 0zm-34 79l-50 119 99 0 -49 -119zm642 -47l20 -28 15 0 1 108 -18 0c-10,-31 -24,-54 -42,-70 -18,-15 -38,-23 -60,-23 -19,0 -34,5 -46,16 -12,10 -18,22 -18,36 0,8 3,16 7,23 5,7 12,13 23,18 10,5 28,10 54,16 30,6 51,12 62,17 19,8 32,19 42,32 9,14 13,30 13,49 0,29 -10,52 -29,69 -24,21 -54,31 -89,31 -33,0 -62,-11 -89,-34l-25 31 -15 0 0 -116 18 0c18,66 56,99 112,99 23,0 41,-6 54,-16 12,-11 19,-24 19,-40 0,-11 -3,-20 -9,-28 -5,-7 -14,-13 -26,-18 -6,-2 -22,-6 -48,-12 -34,-7 -58,-15 -73,-23 -15,-8 -25,-18 -32,-30 -7,-12 -11,-26 -11,-43 0,-28 10,-51 29,-69 19,-18 45,-27 77,-27 31,0 59,11 84,32z"/>
   <path class="fil8" d="M1578 7733l116 280c4,8 7,13 11,16 4,3 10,4 16,4l12 0 0 20 -147 0 0 -20 14 0c11,0 18,-1 22,-3 4,-3 6,-6 6,-10 0,-3 0,-7 -2,-11l-24 -57 -117 0 -11 26c-5,11 -7,19 -7,24 0,10 3,17 10,23 7,5 16,8 28,8l10 0 0 20 -119 0 0 -20 7 0c8,0 14,-2 20,-7 8,-7 15,-15 19,-26l113 -267 23 0zm-34 79l-50 119 99 0 -49 -119zm199 -71l125 0 71 211 71 -211 128 0 0 19 -27 0c-7,0 -12,2 -15,4 -2,3 -4,7 -4,13l0 239c0,6 2,10 5,12 4,4 10,5 17,5l24 0 0 20 -158 0 0 -20 30 0c5,0 10,-1 12,-5 3,-3 5,-7 5,-12l0 -255 -100 292 -18 0 -99 -295 0 228c0,13 4,24 13,32 8,8 20,14 35,15l0 20 -115 0 0 -20c14,-1 26,-6 34,-15 8,-9 12,-21 12,-35l0 -201c0,-9 -1,-14 -4,-17 -3,-3 -9,-5 -17,-5l-25 0 0 -19zm425 0l160 0 0 19 -29 0c-6,0 -11,2 -13,4 -3,3 -5,6 -5,11l0 241c0,6 2,10 5,12 4,4 9,5 16,5l26 0 0 20 -160 0 0 -20 25 0c8,0 14,-1 18,-4 3,-3 5,-7 5,-13l0 -238c0,-6 -2,-10 -5,-13 -3,-3 -8,-5 -15,-5l-28 0 0 -19zm196 0l154 0 0 19 -25 0c-8,0 -14,2 -17,4 -3,3 -4,7 -4,13l0 138 102 -119c6,-7 9,-13 9,-19 0,-5 -2,-9 -5,-11 -5,-4 -12,-6 -21,-6l-8 0 0 -19 128 0 0 19 -8 0c-12,0 -22,3 -32,9 -15,9 -29,21 -43,38l-40 46 92 160c4,6 9,11 14,14 7,4 14,6 21,6l12 0 0 20 -152 0 0 -20 15 0c8,0 14,-1 18,-3 4,-2 5,-5 5,-8 0,-2 0,-3 -2,-5l-66 -114 -39 45 0 69c0,5 1,9 4,12 3,3 7,4 12,4l28 0 0 20 -152 0 0 -20 22 0c6,0 11,-1 14,-4 3,-3 5,-7 5,-12l0 -242c0,-5 -1,-8 -4,-11 -3,-2 -8,-4 -15,-4l-22 0 0 -19zm510 -8c29,0 56,7 81,22 25,14 44,33 58,58 14,24 21,52 21,82 0,47 -16,86 -46,117 -31,31 -69,47 -114,47 -30,0 -57,-7 -80,-21 -24,-14 -43,-34 -57,-58 -14,-24 -20,-52 -20,-84 0,-47 15,-86 45,-117 30,-30 67,-46 112,-46zm1 21c-17,0 -31,4 -44,13 -12,10 -22,24 -29,45 -7,20 -11,48 -11,84 0,37 4,66 10,85 7,20 17,34 29,43 13,9 28,14 45,14 25,0 45,-11 61,-32 15,-22 22,-59 22,-113 0,-37 -3,-65 -10,-84 -6,-18 -16,-32 -28,-42 -13,-9 -28,-13 -45,-13zm194 -13l125 0 71 211 71 -211 128 0 0 19 -28 0c-7,0 -11,2 -14,4 -3,3 -4,7 -4,13l0 239c0,6 2,10 4,12 5,4 10,5 17,5l25 0 0 20 -158 0 0 -20 30 0c5,0 9,-1 12,-5 3,-3 5,-7 5,-12l0 -255 -100 292 -19 0 -98 -295 0 228c0,13 4,24 12,32 9,8 21,14 36,15l0 20 -115 0 0 -20c14,-1 26,-6 34,-15 8,-9 12,-21 12,-35l0 -201c0,-9 -2,-14 -5,-17 -3,-3 -8,-5 -17,-5l-24 0 0 -19zm560 0l183 0c30,0 55,8 74,25 19,16 28,37 28,61 0,18 -5,34 -16,48 -11,13 -25,23 -44,29 -18,7 -36,10 -54,10l-58 0 0 101c0,6 2,10 5,13 3,4 7,5 12,5l36 0 0 20 -166 0 0 -20 28 0c6,0 11,-1 14,-5 3,-3 5,-7 5,-13l0 -237c0,-6 -2,-10 -5,-13 -3,-3 -7,-5 -12,-5l-30 0 0 -19zm113 153l39 0c13,0 25,-3 35,-8 11,-6 18,-13 23,-21 4,-8 6,-22 6,-40 0,-25 -6,-43 -20,-53 -10,-8 -27,-12 -51,-12 -14,0 -23,2 -26,4 -4,2 -6,6 -6,12l0 118zm201 -153l157 0 0 19 -32 0c-5,0 -8,2 -11,5 -2,3 -3,8 -3,14l0 172c0,25 6,43 19,56 13,13 31,20 53,20 17,0 32,-4 46,-11 10,-5 18,-14 24,-26 7,-13 10,-28 10,-47l0 -132c0,-17 -4,-29 -11,-38 -8,-8 -18,-13 -31,-13l-4 0 0 -19 119 0 0 19 -8 0c-13,0 -22,5 -29,15 -6,9 -9,20 -9,34l0 144c0,32 -11,57 -32,77 -22,19 -51,29 -89,29 -27,0 -50,-4 -70,-13 -20,-9 -34,-20 -42,-34 -9,-14 -13,-32 -13,-55l0 -175c0,-8 -1,-14 -4,-17 -4,-3 -9,-5 -17,-5l-23 0 0 -19zm372 0l162 0c27,0 48,3 65,10 16,7 29,16 37,28 8,12 12,25 12,39 0,23 -10,41 -30,55 -16,11 -40,18 -72,21 16,3 28,7 37,13 9,6 17,15 23,26 9,16 16,34 22,55 4,14 7,22 9,26 3,3 6,5 9,5 10,0 15,-12 17,-37l18 0c-1,26 -7,45 -17,56 -10,11 -25,17 -43,17 -14,0 -24,-3 -32,-8 -9,-5 -15,-14 -19,-24 -2,-6 -6,-20 -10,-43 -6,-26 -10,-43 -14,-52 -5,-9 -10,-16 -17,-20 -6,-5 -14,-7 -24,-7l-23 0 0 115c0,5 2,9 5,12 4,3 9,5 14,5l29 0 0 20 -158 0 0 -20 24 0c6,0 11,-1 14,-5 4,-3 5,-8 5,-14l0 -235c0,-6 -1,-11 -4,-14 -3,-3 -7,-5 -13,-5l-26 0 0 -19zm110 141l26 0c24,0 42,-6 56,-18 10,-9 15,-24 15,-46 0,-20 -5,-34 -15,-43 -10,-9 -27,-14 -52,-14 -13,0 -21,1 -25,4 -3,3 -5,10 -5,19l0 98zm200 -141l126 0 0 19 -12 0c-7,0 -12,1 -15,3 -3,2 -4,5 -4,8 0,3 0,5 2,9l61 184 54 -161 -9 -27c-2,-5 -5,-9 -8,-11 -5,-3 -11,-5 -19,-5l-15 0 0 -19 145 0 0 19 -14 0c-9,0 -16,2 -19,4 -4,2 -5,5 -5,10 0,2 0,4 1,6l61 184 52 -162c1,-5 2,-10 2,-15 0,-8 -2,-15 -7,-20 -4,-4 -10,-7 -18,-7l-8 0 0 -19 101 0 0 19c-11,1 -20,3 -27,8 -7,5 -12,13 -15,23l-86 267 -26 0 -73 -218 -73 218 -27 0 -95 -282c-2,-6 -4,-10 -7,-12 -4,-2 -8,-4 -13,-4l-10 0 0 -19zm617 -8c29,0 56,7 81,22 25,14 44,33 58,58 14,24 21,52 21,82 0,47 -15,86 -46,117 -30,31 -68,47 -114,47 -30,0 -56,-7 -80,-21 -24,-14 -43,-34 -57,-58 -13,-24 -20,-52 -20,-84 0,-47 15,-86 45,-117 30,-30 68,-46 112,-46zm1 21c-16,0 -31,4 -43,13 -13,10 -22,24 -30,45 -7,20 -11,48 -11,84 0,37 4,66 10,85 7,20 17,34 30,43 12,9 27,14 44,14 26,0 46,-11 61,-32 15,-22 22,-59 22,-113 0,-37 -3,-65 -9,-84 -7,-18 -16,-32 -29,-42 -13,-9 -28,-13 -45,-13zm200 -13l154 0 0 19 -25 0c-8,0 -13,2 -16,4 -3,3 -5,7 -5,13l0 138 103 -119c6,-7 8,-13 8,-19 0,-5 -1,-9 -5,-11 -5,-4 -12,-6 -20,-6l-9 0 0 -19 128 0 0 19 -8 0c-11,0 -22,3 -32,9 -14,9 -29,21 -43,38l-40 46 92 160c4,6 9,11 14,14 7,4 14,6 21,6l13 0 0 20 -153 0 0 -20 15 0c9,0 15,-1 18,-3 4,-2 6,-5 6,-8 0,-2 -1,-3 -2,-5l-66 -114 -40 45 0 69c0,5 2,9 4,12 3,3 7,4 12,4l29 0 0 20 -153 0 0 -20 22 0c7,0 11,-1 15,-4 3,-3 4,-7 4,-12l0 -242c0,-5 -1,-8 -4,-11 -3,-2 -8,-4 -15,-4l-22 0 0 -19zm347 0l272 0 6 109 -18 0c-4,-26 -10,-44 -16,-56 -7,-11 -16,-19 -26,-25 -11,-6 -25,-9 -42,-9l-43 0c-7,0 -11,2 -14,4 -3,3 -5,7 -5,11l0 108 15 0c17,0 30,-4 39,-14 9,-9 15,-25 16,-46l19 0 0 145 -19 0c-1,-24 -6,-41 -16,-51 -9,-10 -23,-15 -42,-15l-12 0 0 116c0,5 2,8 5,10 4,4 11,5 19,5l38 0c25,0 47,-8 63,-25 16,-16 26,-41 30,-74l19 0 -5 119 -283 0 0 -20 28 0c7,0 11,-1 15,-5 3,-3 5,-7 5,-13l0 -240c0,-5 -2,-9 -5,-11 -4,-2 -10,-4 -18,-4l-25 0 0 -19zm338 0l163 0c26,0 48,3 64,10 17,7 29,16 37,28 8,12 13,25 13,39 0,23 -11,41 -31,55 -16,11 -40,18 -72,21 16,3 29,7 37,13 9,6 17,15 24,26 9,16 16,34 21,55 4,14 7,22 10,26 2,3 5,5 9,5 9,0 14,-12 16,-37l19 0c-2,26 -7,45 -18,56 -10,11 -24,17 -43,17 -13,0 -24,-3 -32,-8 -8,-5 -14,-14 -19,-24 -2,-6 -6,-20 -10,-43 -5,-26 -10,-43 -14,-52 -4,-9 -10,-16 -16,-20 -7,-5 -15,-7 -25,-7l-23 0 0 115c0,5 2,9 5,12 4,3 9,5 15,5l28 0 0 20 -158 0 0 -20 24 0c7,0 11,-1 15,-5 3,-3 5,-8 5,-14l0 -235c0,-6 -2,-11 -5,-14 -3,-3 -7,-5 -13,-5l-26 0 0 -19zm110 141l27 0c23,0 41,-6 55,-18 10,-9 15,-24 15,-46 0,-20 -5,-34 -15,-43 -10,-9 -27,-14 -52,-14 -13,0 -21,1 -25,4 -3,3 -5,10 -5,19l0 98zm238 -141l272 0 7 118 -19 0c-5,-25 -10,-45 -18,-59 -7,-14 -15,-25 -24,-31 -9,-5 -19,-9 -30,-9 -7,0 -11,2 -14,4 -3,3 -5,7 -5,12l0 241c0,5 2,9 5,12 2,3 6,4 10,4l35 0 0 20 -166 0 0 -20 33 0c5,0 9,-1 12,-4 3,-3 5,-7 5,-12l0 -240c0,-6 -2,-10 -5,-12 -3,-3 -7,-5 -14,-5 -36,0 -60,33 -73,99l-18 0 7 -118zm468 -8c29,0 56,7 81,22 25,14 44,33 58,58 14,24 21,52 21,82 0,47 -16,86 -46,117 -31,31 -69,47 -114,47 -30,0 -57,-7 -81,-21 -23,-14 -42,-34 -56,-58 -14,-24 -21,-52 -21,-84 0,-47 16,-86 46,-117 30,-30 67,-46 112,-46zm1 21c-17,0 -31,4 -44,13 -12,10 -22,24 -29,45 -7,20 -11,48 -11,84 0,37 3,66 10,85 7,20 17,34 29,43 13,9 28,14 45,14 25,0 45,-11 60,-32 15,-22 23,-59 23,-113 0,-37 -3,-65 -10,-84 -6,-18 -16,-32 -29,-42 -12,-9 -27,-13 -44,-13z"/>
  </g>
 </g>
</svg>
